<mxfile host="app.diagrams.net" modified="2023-05-26T20:40:02.617Z" agent="Mozilla/5.0 (Windows NT 10.0; Win64; x64; rv:109.0) Gecko/20100101 Firefox/113.0" etag="0KRdVP9Mh49CPi0TjZSP" version="21.3.4" type="github">
  <diagram name="Page-1" id="Gw6h3Obzz_ftjXIXXvwf">
    <mxGraphModel dx="1290" dy="511" grid="1" gridSize="10" guides="1" tooltips="1" connect="1" arrows="1" fold="1" page="1" pageScale="1" pageWidth="1169" pageHeight="827" math="0" shadow="0">
      <root>
        <mxCell id="0" />
        <mxCell id="1" parent="0" />
        <mxCell id="wsKt21fqOUYOqHdjAf_r-4" value="Match" style="swimlane;childLayout=stackLayout;horizontal=1;startSize=50;horizontalStack=0;rounded=1;fontSize=14;fontStyle=0;strokeWidth=2;resizeParent=0;resizeLast=1;shadow=0;dashed=0;align=center;arcSize=4;whiteSpace=wrap;html=1;" parent="1" vertex="1">
          <mxGeometry x="580" y="294" width="160" height="156" as="geometry" />
        </mxCell>
        <mxCell id="wsKt21fqOUYOqHdjAf_r-5" value="&lt;div&gt;&lt;b&gt;&lt;u&gt;id_match&lt;/u&gt;&lt;/b&gt;&lt;/div&gt;&lt;div&gt;match_day&lt;br&gt;&lt;/div&gt;&lt;div&gt;start_game&lt;/div&gt;&lt;div&gt;end_game&lt;/div&gt;&lt;div&gt;&lt;br&gt;&lt;/div&gt;&lt;div&gt;&lt;br&gt;&lt;/div&gt;&lt;div&gt;&lt;br&gt;&lt;/div&gt;&lt;div&gt;&lt;br&gt;&lt;/div&gt;" style="align=left;strokeColor=none;fillColor=none;spacingLeft=4;fontSize=12;verticalAlign=top;resizable=0;rotatable=0;part=1;html=1;" parent="wsKt21fqOUYOqHdjAf_r-4" vertex="1">
          <mxGeometry y="50" width="160" height="106" as="geometry" />
        </mxCell>
        <mxCell id="wsKt21fqOUYOqHdjAf_r-7" value="NFL_Teams" style="swimlane;childLayout=stackLayout;horizontal=1;startSize=50;horizontalStack=0;rounded=1;fontSize=14;fontStyle=0;strokeWidth=2;resizeParent=0;resizeLast=1;shadow=0;dashed=0;align=center;arcSize=4;whiteSpace=wrap;html=1;" parent="1" vertex="1">
          <mxGeometry x="1050" y="390" width="100" height="90" as="geometry" />
        </mxCell>
        <mxCell id="wsKt21fqOUYOqHdjAf_r-8" value="&lt;div&gt;&lt;b&gt;&lt;u&gt;id_team&lt;/u&gt;&lt;/b&gt;&lt;/div&gt;&lt;div&gt;Team_name&lt;/div&gt;&lt;div&gt;&lt;br&gt;&lt;/div&gt;" style="align=left;strokeColor=none;fillColor=none;spacingLeft=4;fontSize=12;verticalAlign=top;resizable=0;rotatable=0;part=1;html=1;" parent="wsKt21fqOUYOqHdjAf_r-7" vertex="1">
          <mxGeometry y="50" width="100" height="40" as="geometry" />
        </mxCell>
        <mxCell id="5XFzmEXr4MJCosm6xX2L-1" value="User" style="swimlane;childLayout=stackLayout;horizontal=1;startSize=50;horizontalStack=0;rounded=1;fontSize=14;fontStyle=0;strokeWidth=2;resizeParent=0;resizeLast=1;shadow=0;dashed=0;align=center;arcSize=4;whiteSpace=wrap;html=1;" parent="1" vertex="1">
          <mxGeometry x="360" y="250" width="70" height="140" as="geometry" />
        </mxCell>
        <mxCell id="5XFzmEXr4MJCosm6xX2L-2" value="&lt;div&gt;&lt;b&gt;&lt;u&gt;id_user&lt;/u&gt;&lt;/b&gt;&lt;/div&gt;&lt;div&gt;lastname&lt;/div&gt;&lt;div&gt;firstname&lt;/div&gt;&lt;div&gt;email&lt;/div&gt;&lt;div&gt;password&lt;/div&gt;&lt;div&gt;&lt;br&gt;&lt;/div&gt;&lt;div&gt;&lt;br&gt;&lt;/div&gt;" style="align=left;strokeColor=none;fillColor=none;spacingLeft=4;fontSize=12;verticalAlign=top;resizable=0;rotatable=0;part=1;html=1;" parent="5XFzmEXr4MJCosm6xX2L-1" vertex="1">
          <mxGeometry y="50" width="70" height="90" as="geometry" />
        </mxCell>
        <mxCell id="5XFzmEXr4MJCosm6xX2L-3" value="&lt;div&gt;Bet_match&lt;/div&gt;&lt;div&gt;&lt;br&gt;&lt;/div&gt;" style="swimlane;childLayout=stackLayout;horizontal=1;startSize=50;horizontalStack=0;rounded=1;fontSize=14;fontStyle=0;strokeWidth=2;resizeParent=0;resizeLast=1;shadow=0;dashed=0;align=center;arcSize=4;whiteSpace=wrap;html=1;" parent="1" vertex="1">
          <mxGeometry x="410" y="580" width="160" height="120" as="geometry" />
        </mxCell>
        <mxCell id="5XFzmEXr4MJCosm6xX2L-4" value="&lt;div&gt;&lt;b&gt;&lt;u&gt;id_bet&lt;/u&gt;&lt;/b&gt;&lt;/div&gt;&lt;div&gt;bet_amount&lt;/div&gt;&lt;div&gt;date_bet&lt;/div&gt;date_update" style="align=left;strokeColor=none;fillColor=none;spacingLeft=4;fontSize=12;verticalAlign=top;resizable=0;rotatable=0;part=1;html=1;" parent="5XFzmEXr4MJCosm6xX2L-3" vertex="1">
          <mxGeometry y="50" width="160" height="70" as="geometry" />
        </mxCell>
        <mxCell id="GG5rKBl0zWL7bbtaTnsB-2" value="Match_status" style="swimlane;childLayout=stackLayout;horizontal=1;startSize=50;horizontalStack=0;rounded=1;fontSize=14;fontStyle=0;strokeWidth=2;resizeParent=0;resizeLast=1;shadow=0;dashed=0;align=center;arcSize=4;whiteSpace=wrap;html=1;" vertex="1" parent="1">
          <mxGeometry x="580" y="30" width="160" height="90" as="geometry" />
        </mxCell>
        <mxCell id="GG5rKBl0zWL7bbtaTnsB-3" value="&lt;div&gt;&lt;b&gt;&lt;u&gt;id_status&lt;/u&gt;&lt;/b&gt;&lt;/div&gt;&lt;div&gt;status_name&lt;br&gt;&lt;/div&gt;&lt;br&gt;" style="align=left;strokeColor=none;fillColor=none;spacingLeft=4;fontSize=12;verticalAlign=top;resizable=0;rotatable=0;part=1;html=1;" vertex="1" parent="GG5rKBl0zWL7bbtaTnsB-2">
          <mxGeometry y="50" width="160" height="40" as="geometry" />
        </mxCell>
        <mxCell id="GG5rKBl0zWL7bbtaTnsB-4" value="Team_player" style="swimlane;childLayout=stackLayout;horizontal=1;startSize=50;horizontalStack=0;rounded=1;fontSize=14;fontStyle=0;strokeWidth=2;resizeParent=0;resizeLast=1;shadow=0;dashed=0;align=center;arcSize=4;whiteSpace=wrap;html=1;" vertex="1" parent="1">
          <mxGeometry x="1050" y="90" width="100" height="120" as="geometry" />
        </mxCell>
        <mxCell id="GG5rKBl0zWL7bbtaTnsB-5" value="&lt;div&gt;&lt;b&gt;&lt;u&gt;id_roster&lt;/u&gt;&lt;/b&gt;&lt;/div&gt;&lt;div&gt;player_name&lt;/div&gt;&lt;div&gt;number_player&lt;/div&gt;&lt;div&gt;&lt;br&gt;&lt;/div&gt;" style="align=left;strokeColor=none;fillColor=none;spacingLeft=4;fontSize=12;verticalAlign=top;resizable=0;rotatable=0;part=1;html=1;" vertex="1" parent="GG5rKBl0zWL7bbtaTnsB-4">
          <mxGeometry y="50" width="100" height="70" as="geometry" />
        </mxCell>
        <mxCell id="GG5rKBl0zWL7bbtaTnsB-6" value="Role" style="swimlane;childLayout=stackLayout;horizontal=1;startSize=50;horizontalStack=0;rounded=1;fontSize=14;fontStyle=0;strokeWidth=2;resizeParent=0;resizeLast=1;shadow=0;dashed=0;align=center;arcSize=4;whiteSpace=wrap;html=1;" vertex="1" parent="1">
          <mxGeometry x="20" y="250" width="90" height="90" as="geometry" />
        </mxCell>
        <mxCell id="GG5rKBl0zWL7bbtaTnsB-7" value="&lt;div&gt;id_role&lt;/div&gt;&lt;div&gt;name_role&lt;/div&gt;&lt;div&gt;&lt;br&gt;&lt;/div&gt;" style="align=left;strokeColor=none;fillColor=none;spacingLeft=4;fontSize=12;verticalAlign=top;resizable=0;rotatable=0;part=1;html=1;" vertex="1" parent="GG5rKBl0zWL7bbtaTnsB-6">
          <mxGeometry y="50" width="90" height="40" as="geometry" />
        </mxCell>
        <mxCell id="GG5rKBl0zWL7bbtaTnsB-11" value="" style="endArrow=none;html=1;rounded=0;entryX=0;entryY=0;entryDx=0;entryDy=0;exitX=1;exitY=0;exitDx=0;exitDy=0;" edge="1" parent="1" source="GG5rKBl0zWL7bbtaTnsB-7" target="5XFzmEXr4MJCosm6xX2L-2">
          <mxGeometry relative="1" as="geometry">
            <mxPoint x="180" y="300" as="sourcePoint" />
            <mxPoint x="340" y="300" as="targetPoint" />
          </mxGeometry>
        </mxCell>
        <mxCell id="GG5rKBl0zWL7bbtaTnsB-12" value="1.1" style="resizable=0;html=1;whiteSpace=wrap;align=right;verticalAlign=bottom;" connectable="0" vertex="1" parent="GG5rKBl0zWL7bbtaTnsB-11">
          <mxGeometry x="1" relative="1" as="geometry">
            <mxPoint x="-10" y="-5" as="offset" />
          </mxGeometry>
        </mxCell>
        <mxCell id="GG5rKBl0zWL7bbtaTnsB-13" value="0,n" style="resizable=0;html=1;whiteSpace=wrap;align=right;verticalAlign=bottom;" connectable="0" vertex="1" parent="1">
          <mxGeometry x="210" y="270" as="geometry">
            <mxPoint x="-72" y="26" as="offset" />
          </mxGeometry>
        </mxCell>
        <mxCell id="GG5rKBl0zWL7bbtaTnsB-15" value="is recorded as" style="swimlane;fontStyle=1;align=center;verticalAlign=middle;childLayout=stackLayout;horizontal=1;startSize=30;horizontalStack=0;resizeParent=0;resizeLast=1;container=0;fontColor=#000000;collapsible=0;rounded=1;arcSize=30;strokeColor=#ff0000;fillColor=#ffffc0;swimlaneFillColor=#ffffc0;dropTarget=0;" vertex="1" parent="1">
          <mxGeometry x="170" y="270" width="100" height="60" as="geometry" />
        </mxCell>
        <mxCell id="GG5rKBl0zWL7bbtaTnsB-31" value="" style="endArrow=none;html=1;rounded=0;exitX=1;exitY=0;exitDx=0;exitDy=0;" edge="1" parent="1" source="5XFzmEXr4MJCosm6xX2L-2">
          <mxGeometry relative="1" as="geometry">
            <mxPoint x="430" y="300" as="sourcePoint" />
            <mxPoint x="490" y="430" as="targetPoint" />
            <Array as="points">
              <mxPoint x="490" y="300" />
            </Array>
          </mxGeometry>
        </mxCell>
        <mxCell id="GG5rKBl0zWL7bbtaTnsB-30" value="bet" style="swimlane;fontStyle=1;align=center;verticalAlign=middle;childLayout=stackLayout;horizontal=1;startSize=30;horizontalStack=0;resizeParent=0;resizeLast=1;container=0;fontColor=#000000;collapsible=0;rounded=1;arcSize=30;strokeColor=#ff0000;fillColor=#ffffc0;swimlaneFillColor=#ffffc0;dropTarget=0;" vertex="1" parent="1">
          <mxGeometry x="440" y="430" width="100" height="60" as="geometry" />
        </mxCell>
        <mxCell id="GG5rKBl0zWL7bbtaTnsB-34" value="" style="endArrow=none;html=1;rounded=0;" edge="1" parent="1">
          <mxGeometry relative="1" as="geometry">
            <mxPoint x="489.5" y="490" as="sourcePoint" />
            <mxPoint x="489.5" y="580" as="targetPoint" />
          </mxGeometry>
        </mxCell>
        <mxCell id="GG5rKBl0zWL7bbtaTnsB-35" value="1,1" style="resizable=0;html=1;whiteSpace=wrap;align=right;verticalAlign=bottom;" connectable="0" vertex="1" parent="GG5rKBl0zWL7bbtaTnsB-34">
          <mxGeometry x="1" relative="1" as="geometry">
            <mxPoint x="21" y="-10" as="offset" />
          </mxGeometry>
        </mxCell>
        <mxCell id="GG5rKBl0zWL7bbtaTnsB-38" value="0,n" style="resizable=0;html=1;whiteSpace=wrap;align=right;verticalAlign=bottom;" connectable="0" vertex="1" parent="1">
          <mxGeometry x="620" y="480" as="geometry">
            <mxPoint x="-164" y="-185" as="offset" />
          </mxGeometry>
        </mxCell>
        <mxCell id="GG5rKBl0zWL7bbtaTnsB-40" value="par" style="swimlane;fontStyle=1;align=center;verticalAlign=middle;childLayout=stackLayout;horizontal=1;startSize=30;horizontalStack=0;resizeParent=0;resizeLast=1;container=0;fontColor=#000000;collapsible=0;rounded=1;arcSize=30;strokeColor=#ff0000;fillColor=#ffffc0;swimlaneFillColor=#ffffc0;dropTarget=0;" vertex="1" parent="1">
          <mxGeometry x="620" y="490" width="80" height="60" as="geometry" />
        </mxCell>
        <mxCell id="GG5rKBl0zWL7bbtaTnsB-41" value="" style="endArrow=none;html=1;rounded=0;entryX=0.5;entryY=1;entryDx=0;entryDy=0;exitX=0.5;exitY=0;exitDx=0;exitDy=0;" edge="1" parent="1" source="GG5rKBl0zWL7bbtaTnsB-40" target="wsKt21fqOUYOqHdjAf_r-5">
          <mxGeometry relative="1" as="geometry">
            <mxPoint x="580" y="420" as="sourcePoint" />
            <mxPoint x="740" y="420" as="targetPoint" />
            <Array as="points" />
          </mxGeometry>
        </mxCell>
        <mxCell id="GG5rKBl0zWL7bbtaTnsB-43" value="" style="endArrow=none;html=1;rounded=0;entryX=0.5;entryY=1;entryDx=0;entryDy=0;" edge="1" parent="1" target="GG5rKBl0zWL7bbtaTnsB-40">
          <mxGeometry relative="1" as="geometry">
            <mxPoint x="570" y="610" as="sourcePoint" />
            <mxPoint x="720" y="530" as="targetPoint" />
            <Array as="points">
              <mxPoint x="660" y="610" />
            </Array>
          </mxGeometry>
        </mxCell>
        <mxCell id="GG5rKBl0zWL7bbtaTnsB-46" value="is" style="swimlane;fontStyle=1;align=center;verticalAlign=middle;childLayout=stackLayout;horizontal=1;startSize=30;horizontalStack=0;resizeParent=0;resizeLast=1;container=0;fontColor=#000000;collapsible=0;rounded=1;arcSize=30;strokeColor=#ff0000;fillColor=#ffffc0;swimlaneFillColor=#ffffc0;dropTarget=0;" vertex="1" parent="1">
          <mxGeometry x="610" y="170" width="100" height="60" as="geometry" />
        </mxCell>
        <mxCell id="GG5rKBl0zWL7bbtaTnsB-47" value="1,1" style="resizable=0;html=1;whiteSpace=wrap;align=right;verticalAlign=bottom;" connectable="0" vertex="1" parent="1">
          <mxGeometry x="520.5" y="580" as="geometry">
            <mxPoint x="73" y="28" as="offset" />
          </mxGeometry>
        </mxCell>
        <mxCell id="GG5rKBl0zWL7bbtaTnsB-49" value="" style="endArrow=none;html=1;rounded=0;exitX=0.5;exitY=1;exitDx=0;exitDy=0;" edge="1" parent="1" source="GG5rKBl0zWL7bbtaTnsB-46">
          <mxGeometry relative="1" as="geometry">
            <mxPoint x="500" y="290" as="sourcePoint" />
            <mxPoint x="660" y="290" as="targetPoint" />
          </mxGeometry>
        </mxCell>
        <mxCell id="GG5rKBl0zWL7bbtaTnsB-50" value="1,1" style="resizable=0;html=1;whiteSpace=wrap;align=right;verticalAlign=bottom;" connectable="0" vertex="1" parent="GG5rKBl0zWL7bbtaTnsB-49">
          <mxGeometry x="1" relative="1" as="geometry" />
        </mxCell>
        <mxCell id="GG5rKBl0zWL7bbtaTnsB-51" value="" style="endArrow=none;html=1;rounded=0;exitX=0.5;exitY=1;exitDx=0;exitDy=0;entryX=0.5;entryY=0;entryDx=0;entryDy=0;" edge="1" parent="1" source="GG5rKBl0zWL7bbtaTnsB-3" target="GG5rKBl0zWL7bbtaTnsB-46">
          <mxGeometry relative="1" as="geometry">
            <mxPoint x="550" y="149.5" as="sourcePoint" />
            <mxPoint x="710" y="149.5" as="targetPoint" />
          </mxGeometry>
        </mxCell>
        <mxCell id="GG5rKBl0zWL7bbtaTnsB-52" value="0,n" style="resizable=0;html=1;whiteSpace=wrap;align=right;verticalAlign=bottom;" connectable="0" vertex="1" parent="GG5rKBl0zWL7bbtaTnsB-51">
          <mxGeometry x="1" relative="1" as="geometry">
            <mxPoint y="-30" as="offset" />
          </mxGeometry>
        </mxCell>
        <mxCell id="GG5rKBl0zWL7bbtaTnsB-58" value="" style="edgeStyle=orthogonalEdgeStyle;rounded=0;orthogonalLoop=1;jettySize=auto;html=1;" edge="1" parent="1" source="GG5rKBl0zWL7bbtaTnsB-53" target="GG5rKBl0zWL7bbtaTnsB-5">
          <mxGeometry relative="1" as="geometry" />
        </mxCell>
        <mxCell id="GG5rKBl0zWL7bbtaTnsB-53" value="is member of" style="swimlane;fontStyle=1;align=center;verticalAlign=middle;childLayout=stackLayout;horizontal=1;startSize=30;horizontalStack=0;resizeParent=0;resizeLast=1;container=0;fontColor=#000000;collapsible=0;rounded=1;arcSize=30;strokeColor=#ff0000;fillColor=#ffffc0;swimlaneFillColor=#ffffc0;dropTarget=0;" vertex="1" parent="1">
          <mxGeometry x="1050" y="265" width="100" height="60" as="geometry" />
        </mxCell>
        <mxCell id="GG5rKBl0zWL7bbtaTnsB-54" value="" style="endArrow=none;html=1;rounded=0;entryX=0.5;entryY=0;entryDx=0;entryDy=0;exitX=0.5;exitY=1;exitDx=0;exitDy=0;" edge="1" parent="1" source="GG5rKBl0zWL7bbtaTnsB-5" target="GG5rKBl0zWL7bbtaTnsB-53">
          <mxGeometry relative="1" as="geometry">
            <mxPoint x="930" y="240" as="sourcePoint" />
            <mxPoint x="1090" y="240" as="targetPoint" />
          </mxGeometry>
        </mxCell>
        <mxCell id="GG5rKBl0zWL7bbtaTnsB-55" value="1,1" style="resizable=0;html=1;whiteSpace=wrap;align=right;verticalAlign=bottom;" connectable="0" vertex="1" parent="GG5rKBl0zWL7bbtaTnsB-54">
          <mxGeometry x="1" relative="1" as="geometry">
            <mxPoint x="30" y="-20" as="offset" />
          </mxGeometry>
        </mxCell>
        <mxCell id="GG5rKBl0zWL7bbtaTnsB-56" value="" style="endArrow=none;html=1;rounded=0;exitX=0.5;exitY=1;exitDx=0;exitDy=0;entryX=0.5;entryY=0;entryDx=0;entryDy=0;" edge="1" parent="1" source="GG5rKBl0zWL7bbtaTnsB-53" target="wsKt21fqOUYOqHdjAf_r-7">
          <mxGeometry relative="1" as="geometry">
            <mxPoint x="1060" y="330" as="sourcePoint" />
            <mxPoint x="1220" y="330" as="targetPoint" />
          </mxGeometry>
        </mxCell>
        <mxCell id="GG5rKBl0zWL7bbtaTnsB-57" value="0,n" style="resizable=0;html=1;whiteSpace=wrap;align=right;verticalAlign=bottom;" connectable="0" vertex="1" parent="GG5rKBl0zWL7bbtaTnsB-56">
          <mxGeometry x="1" relative="1" as="geometry">
            <mxPoint x="30" y="-10" as="offset" />
          </mxGeometry>
        </mxCell>
        <mxCell id="GG5rKBl0zWL7bbtaTnsB-59" value="play" style="swimlane;fontStyle=1;align=center;verticalAlign=middle;childLayout=stackLayout;horizontal=1;startSize=30;horizontalStack=0;resizeParent=0;resizeLast=1;container=0;fontColor=#000000;collapsible=0;rounded=1;arcSize=30;strokeColor=#ff0000;fillColor=#ffffc0;swimlaneFillColor=#ffffc0;dropTarget=0;" vertex="1" parent="1">
          <mxGeometry x="850" y="420" width="100" height="60" as="geometry" />
        </mxCell>
        <mxCell id="GG5rKBl0zWL7bbtaTnsB-60" value="" style="endArrow=none;html=1;rounded=0;exitX=1;exitY=0.5;exitDx=0;exitDy=0;entryX=0;entryY=0;entryDx=0;entryDy=0;" edge="1" parent="1" source="GG5rKBl0zWL7bbtaTnsB-59" target="wsKt21fqOUYOqHdjAf_r-8">
          <mxGeometry relative="1" as="geometry">
            <mxPoint x="830" y="413" as="sourcePoint" />
            <mxPoint x="990" y="413" as="targetPoint" />
            <Array as="points">
              <mxPoint x="1000" y="450" />
            </Array>
          </mxGeometry>
        </mxCell>
        <mxCell id="GG5rKBl0zWL7bbtaTnsB-61" value="2,2" style="resizable=0;html=1;whiteSpace=wrap;align=right;verticalAlign=bottom;" connectable="0" vertex="1" parent="GG5rKBl0zWL7bbtaTnsB-60">
          <mxGeometry x="1" relative="1" as="geometry">
            <mxPoint x="-10" y="-5" as="offset" />
          </mxGeometry>
        </mxCell>
        <mxCell id="GG5rKBl0zWL7bbtaTnsB-62" value="" style="endArrow=none;html=1;rounded=0;entryX=0;entryY=0.5;entryDx=0;entryDy=0;" edge="1" parent="1">
          <mxGeometry relative="1" as="geometry">
            <mxPoint x="740" y="390" as="sourcePoint" />
            <mxPoint x="850" y="457" as="targetPoint" />
            <Array as="points">
              <mxPoint x="770" y="390" />
              <mxPoint x="800" y="390" />
              <mxPoint x="800" y="417" />
              <mxPoint x="800" y="457" />
            </Array>
          </mxGeometry>
        </mxCell>
        <mxCell id="GG5rKBl0zWL7bbtaTnsB-63" value="1,n" style="resizable=0;html=1;whiteSpace=wrap;align=right;verticalAlign=bottom;" connectable="0" vertex="1" parent="GG5rKBl0zWL7bbtaTnsB-62">
          <mxGeometry x="1" relative="1" as="geometry">
            <mxPoint x="-20" y="-7" as="offset" />
          </mxGeometry>
        </mxCell>
        <mxCell id="GG5rKBl0zWL7bbtaTnsB-64" value="Weather" style="swimlane;childLayout=stackLayout;horizontal=1;startSize=50;horizontalStack=0;rounded=1;fontSize=14;fontStyle=0;strokeWidth=2;resizeParent=0;resizeLast=1;shadow=0;dashed=0;align=center;arcSize=4;whiteSpace=wrap;html=1;" vertex="1" parent="1">
          <mxGeometry x="390" y="30" width="160" height="90" as="geometry" />
        </mxCell>
        <mxCell id="GG5rKBl0zWL7bbtaTnsB-65" value="&lt;div&gt;&lt;b&gt;&lt;u&gt;id_weather&lt;/u&gt;&lt;/b&gt;&lt;/div&gt;&lt;div&gt;weather_name&lt;br&gt;&lt;/div&gt;" style="align=left;strokeColor=none;fillColor=none;spacingLeft=4;fontSize=12;verticalAlign=top;resizable=0;rotatable=0;part=1;html=1;" vertex="1" parent="GG5rKBl0zWL7bbtaTnsB-64">
          <mxGeometry y="50" width="160" height="40" as="geometry" />
        </mxCell>
        <mxCell id="GG5rKBl0zWL7bbtaTnsB-66" value="is" style="swimlane;fontStyle=1;align=center;verticalAlign=middle;childLayout=stackLayout;horizontal=1;startSize=30;horizontalStack=0;resizeParent=0;resizeLast=1;container=0;fontColor=#000000;collapsible=0;rounded=1;arcSize=30;strokeColor=#ff0000;fillColor=#ffffc0;swimlaneFillColor=#ffffc0;dropTarget=0;" vertex="1" parent="1">
          <mxGeometry x="430" y="150" width="100" height="60" as="geometry" />
        </mxCell>
        <mxCell id="GG5rKBl0zWL7bbtaTnsB-67" value="" style="endArrow=none;html=1;rounded=0;" edge="1" parent="1">
          <mxGeometry relative="1" as="geometry">
            <mxPoint x="470" y="210" as="sourcePoint" />
            <mxPoint x="620" y="290" as="targetPoint" />
            <Array as="points">
              <mxPoint x="470" y="250" />
              <mxPoint x="620" y="250" />
            </Array>
          </mxGeometry>
        </mxCell>
        <mxCell id="GG5rKBl0zWL7bbtaTnsB-68" value="1,1" style="resizable=0;html=1;whiteSpace=wrap;align=right;verticalAlign=bottom;" connectable="0" vertex="1" parent="GG5rKBl0zWL7bbtaTnsB-67">
          <mxGeometry x="1" relative="1" as="geometry">
            <mxPoint x="-10" as="offset" />
          </mxGeometry>
        </mxCell>
        <mxCell id="GG5rKBl0zWL7bbtaTnsB-69" value="" style="endArrow=none;html=1;rounded=0;exitX=0.563;exitY=1;exitDx=0;exitDy=0;exitPerimeter=0;entryX=0.5;entryY=0;entryDx=0;entryDy=0;" edge="1" parent="1" source="GG5rKBl0zWL7bbtaTnsB-65" target="GG5rKBl0zWL7bbtaTnsB-66">
          <mxGeometry relative="1" as="geometry">
            <mxPoint x="330" y="149" as="sourcePoint" />
            <mxPoint x="480" y="150" as="targetPoint" />
          </mxGeometry>
        </mxCell>
        <mxCell id="GG5rKBl0zWL7bbtaTnsB-70" value="0,n" style="resizable=0;html=1;whiteSpace=wrap;align=right;verticalAlign=bottom;" connectable="0" vertex="1" parent="GG5rKBl0zWL7bbtaTnsB-69">
          <mxGeometry x="1" relative="1" as="geometry">
            <mxPoint x="-10" y="-10" as="offset" />
          </mxGeometry>
        </mxCell>
        <mxCell id="GG5rKBl0zWL7bbtaTnsB-71" value="Comments" style="swimlane;childLayout=stackLayout;horizontal=1;startSize=50;horizontalStack=0;rounded=1;fontSize=14;fontStyle=0;strokeWidth=2;resizeParent=0;resizeLast=1;shadow=0;dashed=0;align=center;arcSize=4;whiteSpace=wrap;html=1;" vertex="1" parent="1">
          <mxGeometry x="710" y="690" width="120" height="90" as="geometry" />
        </mxCell>
        <mxCell id="GG5rKBl0zWL7bbtaTnsB-72" value="&lt;div&gt;&lt;b&gt;&lt;u&gt;id_comment&lt;/u&gt;&lt;/b&gt;&lt;/div&gt;&lt;div&gt;Comments&lt;/div&gt;&lt;div&gt;&lt;br&gt;&lt;/div&gt;" style="align=left;strokeColor=none;fillColor=none;spacingLeft=4;fontSize=12;verticalAlign=top;resizable=0;rotatable=0;part=1;html=1;" vertex="1" parent="GG5rKBl0zWL7bbtaTnsB-71">
          <mxGeometry y="50" width="120" height="40" as="geometry" />
        </mxCell>
        <mxCell id="GG5rKBl0zWL7bbtaTnsB-73" value="Comments sent" style="swimlane;fontStyle=1;align=center;verticalAlign=middle;childLayout=stackLayout;horizontal=1;startSize=30;horizontalStack=0;resizeParent=0;resizeLast=1;container=0;fontColor=#000000;collapsible=0;rounded=1;arcSize=30;strokeColor=#ff0000;fillColor=#ffffc0;swimlaneFillColor=#ffffc0;dropTarget=0;" vertex="1" parent="1">
          <mxGeometry x="720" y="570" width="100" height="60" as="geometry" />
        </mxCell>
        <mxCell id="GG5rKBl0zWL7bbtaTnsB-74" value="" style="endArrow=none;html=1;rounded=0;" edge="1" parent="1">
          <mxGeometry relative="1" as="geometry">
            <mxPoint x="770" y="629.5" as="sourcePoint" />
            <mxPoint x="770" y="690" as="targetPoint" />
            <Array as="points">
              <mxPoint x="770" y="650" />
              <mxPoint x="770" y="670" />
            </Array>
          </mxGeometry>
        </mxCell>
        <mxCell id="GG5rKBl0zWL7bbtaTnsB-75" value="1,1" style="resizable=0;html=1;whiteSpace=wrap;align=right;verticalAlign=bottom;" connectable="0" vertex="1" parent="GG5rKBl0zWL7bbtaTnsB-74">
          <mxGeometry x="1" relative="1" as="geometry">
            <mxPoint x="30" y="-10" as="offset" />
          </mxGeometry>
        </mxCell>
        <mxCell id="GG5rKBl0zWL7bbtaTnsB-76" value="" style="endArrow=none;html=1;rounded=0;entryX=0.5;entryY=0;entryDx=0;entryDy=0;" edge="1" parent="1" target="GG5rKBl0zWL7bbtaTnsB-73">
          <mxGeometry relative="1" as="geometry">
            <mxPoint x="720" y="450" as="sourcePoint" />
            <mxPoint x="800" y="519.5" as="targetPoint" />
            <Array as="points">
              <mxPoint x="719" y="480" />
              <mxPoint x="770" y="480" />
            </Array>
          </mxGeometry>
        </mxCell>
        <mxCell id="GG5rKBl0zWL7bbtaTnsB-77" value="0,n" style="resizable=0;html=1;whiteSpace=wrap;align=right;verticalAlign=bottom;" connectable="0" vertex="1" parent="GG5rKBl0zWL7bbtaTnsB-76">
          <mxGeometry x="1" relative="1" as="geometry">
            <mxPoint x="-60" y="-100" as="offset" />
          </mxGeometry>
        </mxCell>
        <mxCell id="GG5rKBl0zWL7bbtaTnsB-48" value="0,n" style="resizable=0;html=1;whiteSpace=wrap;align=right;verticalAlign=bottom;" connectable="0" vertex="1" parent="1">
          <mxGeometry x="570" y="450" width="160" as="geometry">
            <mxPoint x="-72" y="26" as="offset" />
          </mxGeometry>
        </mxCell>
        <mxCell id="GG5rKBl0zWL7bbtaTnsB-92" value="Cote" style="swimlane;childLayout=stackLayout;horizontal=1;startSize=50;horizontalStack=0;rounded=1;fontSize=14;fontStyle=0;strokeWidth=2;resizeParent=0;resizeLast=1;shadow=0;dashed=0;align=center;arcSize=4;whiteSpace=wrap;html=1;" vertex="1" parent="1">
          <mxGeometry x="890" y="510" width="60" height="90" as="geometry" />
        </mxCell>
        <mxCell id="GG5rKBl0zWL7bbtaTnsB-93" value="&lt;div&gt;&lt;b&gt;&lt;u&gt;id_cote&lt;/u&gt;&lt;/b&gt;&lt;/div&gt;&lt;div&gt;&lt;br&gt;&lt;/div&gt;" style="align=left;strokeColor=none;fillColor=none;spacingLeft=4;fontSize=12;verticalAlign=top;resizable=0;rotatable=0;part=1;html=1;" vertex="1" parent="GG5rKBl0zWL7bbtaTnsB-92">
          <mxGeometry y="50" width="60" height="40" as="geometry" />
        </mxCell>
        <mxCell id="GG5rKBl0zWL7bbtaTnsB-94" value="Match_score" style="swimlane;childLayout=stackLayout;horizontal=1;startSize=50;horizontalStack=0;rounded=1;fontSize=14;fontStyle=0;strokeWidth=2;resizeParent=0;resizeLast=1;shadow=0;dashed=0;align=center;arcSize=4;whiteSpace=wrap;html=1;" vertex="1" parent="1">
          <mxGeometry x="860" y="265" width="90" height="90" as="geometry" />
        </mxCell>
        <mxCell id="GG5rKBl0zWL7bbtaTnsB-95" value="&lt;div&gt;&lt;b&gt;&lt;u&gt;id_score&lt;/u&gt;&lt;/b&gt;&lt;/div&gt;&lt;div&gt;&lt;br&gt;&lt;/div&gt;" style="align=left;strokeColor=none;fillColor=none;spacingLeft=4;fontSize=12;verticalAlign=top;resizable=0;rotatable=0;part=1;html=1;" vertex="1" parent="GG5rKBl0zWL7bbtaTnsB-94">
          <mxGeometry y="50" width="90" height="40" as="geometry" />
        </mxCell>
        <mxCell id="GG5rKBl0zWL7bbtaTnsB-97" value="" style="endArrow=none;html=1;rounded=0;entryX=0.5;entryY=1;entryDx=0;entryDy=0;" edge="1" parent="1" target="wsKt21fqOUYOqHdjAf_r-8">
          <mxGeometry relative="1" as="geometry">
            <mxPoint x="950" y="540" as="sourcePoint" />
            <mxPoint x="1110" y="540" as="targetPoint" />
            <Array as="points">
              <mxPoint x="1100" y="540" />
            </Array>
          </mxGeometry>
        </mxCell>
        <mxCell id="GG5rKBl0zWL7bbtaTnsB-98" value="&lt;div&gt;0,n&lt;/div&gt;&lt;div&gt;&lt;br&gt;&lt;/div&gt;" style="resizable=0;html=1;whiteSpace=wrap;align=right;verticalAlign=bottom;" connectable="0" vertex="1" parent="GG5rKBl0zWL7bbtaTnsB-97">
          <mxGeometry x="1" relative="1" as="geometry">
            <mxPoint x="30" y="40" as="offset" />
          </mxGeometry>
        </mxCell>
        <mxCell id="GG5rKBl0zWL7bbtaTnsB-99" value="" style="endArrow=none;html=1;rounded=0;" edge="1" parent="1">
          <mxGeometry relative="1" as="geometry">
            <mxPoint x="740" y="450" as="sourcePoint" />
            <mxPoint x="890" y="540" as="targetPoint" />
          </mxGeometry>
        </mxCell>
        <mxCell id="GG5rKBl0zWL7bbtaTnsB-100" value="1,1" style="resizable=0;html=1;whiteSpace=wrap;align=right;verticalAlign=bottom;" connectable="0" vertex="1" parent="GG5rKBl0zWL7bbtaTnsB-99">
          <mxGeometry x="1" relative="1" as="geometry">
            <mxPoint x="-10" y="-20" as="offset" />
          </mxGeometry>
        </mxCell>
        <mxCell id="GG5rKBl0zWL7bbtaTnsB-101" value="" style="endArrow=none;html=1;rounded=0;entryX=0;entryY=0.25;entryDx=0;entryDy=0;" edge="1" parent="1" target="GG5rKBl0zWL7bbtaTnsB-95">
          <mxGeometry relative="1" as="geometry">
            <mxPoint x="740" y="325" as="sourcePoint" />
            <mxPoint x="900" y="325" as="targetPoint" />
          </mxGeometry>
        </mxCell>
        <mxCell id="GG5rKBl0zWL7bbtaTnsB-102" value="N" style="resizable=0;html=1;whiteSpace=wrap;align=right;verticalAlign=bottom;" connectable="0" vertex="1" parent="GG5rKBl0zWL7bbtaTnsB-101">
          <mxGeometry x="1" relative="1" as="geometry">
            <mxPoint x="-10" as="offset" />
          </mxGeometry>
        </mxCell>
        <mxCell id="GG5rKBl0zWL7bbtaTnsB-104" value="" style="endArrow=none;html=1;rounded=0;entryX=0;entryY=0;entryDx=0;entryDy=0;" edge="1" parent="1" target="wsKt21fqOUYOqHdjAf_r-7">
          <mxGeometry relative="1" as="geometry">
            <mxPoint x="950" y="340" as="sourcePoint" />
            <mxPoint x="1040" y="390" as="targetPoint" />
          </mxGeometry>
        </mxCell>
        <mxCell id="GG5rKBl0zWL7bbtaTnsB-105" value="N" style="resizable=0;html=1;whiteSpace=wrap;align=right;verticalAlign=bottom;" connectable="0" vertex="1" parent="GG5rKBl0zWL7bbtaTnsB-104">
          <mxGeometry x="1" relative="1" as="geometry">
            <mxPoint y="-10" as="offset" />
          </mxGeometry>
        </mxCell>
        <mxCell id="GG5rKBl0zWL7bbtaTnsB-106" value="1,1" style="resizable=0;html=1;whiteSpace=wrap;align=right;verticalAlign=bottom;" connectable="0" vertex="1" parent="1">
          <mxGeometry x="1000" y="570" as="geometry">
            <mxPoint x="-25" y="-2" as="offset" />
          </mxGeometry>
        </mxCell>
        <mxCell id="GG5rKBl0zWL7bbtaTnsB-107" value="2,2" style="resizable=0;html=1;whiteSpace=wrap;align=right;verticalAlign=bottom;" connectable="0" vertex="1" parent="1">
          <mxGeometry x="820" y="540" as="geometry">
            <mxPoint x="-54" y="-95" as="offset" />
          </mxGeometry>
        </mxCell>
      </root>
    </mxGraphModel>
  </diagram>
</mxfile>
